<mxfile host="app.diagrams.net" modified="2023-11-27T16:55:28.048Z" agent="Mozilla/5.0 (Macintosh; Intel Mac OS X 10_15_7) AppleWebKit/537.36 (KHTML, like Gecko) Chrome/110.0.0.0 Safari/537.36" etag="gqJ5RIWdIMkBQg7uF3A9" version="22.1.4" type="github">
  <diagram name="Page-1" id="3eAYNW6YjqYwDRRNGvi7">
    <mxGraphModel dx="1010" dy="607" grid="1" gridSize="10" guides="1" tooltips="1" connect="1" arrows="1" fold="1" page="1" pageScale="1" pageWidth="850" pageHeight="1100" math="0" shadow="0">
      <root>
        <mxCell id="0" />
        <mxCell id="1" parent="0" />
      </root>
    </mxGraphModel>
  </diagram>
</mxfile>
